ply
format ascii 1.0
element vertex 595
property double x
property double y
property double z
property uchar red
property uchar green
property uchar blue
end_header
-0.024191236306729 -0.013610647181628 0.000000000000000 255 0 0
-0.022769327073552 -0.013610647181628 0.000000000000000 255 0 0
-0.021347417840376 -0.013610647181628 0.000000000000000 255 0 0
-0.019925508607199 -0.013610647181628 0.000000000000000 255 0 0
-0.018503599374022 -0.013610647181628 0.000000000000000 255 0 0
-0.017081690140845 -0.013610647181628 0.000000000000000 255 0 0
-0.015659780907668 -0.013610647181628 0.000000000000000 255 0 0
-0.014237871674491 -0.013610647181628 0.000000000000000 255 0 0
-0.012815962441315 -0.013610647181628 0.000000000000000 255 0 0
-0.011394053208138 -0.013610647181628 0.000000000000000 255 0 0
-0.009972143974961 -0.013610647181628 0.000000000000000 255 0 0
-0.008550234741784 -0.013610647181628 0.000000000000000 255 0 0
-0.007128325508607 -0.013610647181628 0.000000000000000 255 0 0
-0.005706416275430 -0.013610647181628 0.000000000000000 255 0 0
-0.004284507042254 -0.013610647181628 0.000000000000000 255 0 0
-0.002862597809077 -0.013610647181628 0.000000000000000 255 0 0
-0.001440688575900 -0.013610647181628 0.000000000000000 255 0 0
-0.000018779342723 -0.013610647181628 0.000000000000000 255 0 0
0.001403129890454 -0.013610647181628 0.000000000000000 255 0 0
0.002825039123631 -0.013610647181628 0.000000000000000 255 0 0
0.004246948356808 -0.013610647181628 0.000000000000000 255 0 0
0.005668857589984 -0.013610647181628 0.000000000000000 255 0 0
0.007090766823161 -0.013610647181628 0.000000000000000 255 0 0
0.008512676056338 -0.013610647181628 0.000000000000000 255 0 0
0.009934585289515 -0.013610647181628 0.000000000000000 255 0 0
0.011356494522692 -0.013610647181628 0.000000000000000 255 0 0
0.012778403755869 -0.013610647181628 0.000000000000000 255 0 0
0.014200312989045 -0.013610647181628 0.000000000000000 255 0 0
0.015622222222222 -0.013610647181628 0.000000000000000 255 0 0
0.017044131455399 -0.013610647181628 0.000000000000000 255 0 0
0.018466040688576 -0.013610647181628 0.000000000000000 255 0 0
0.019887949921753 -0.013610647181628 0.000000000000000 255 0 0
0.021309859154930 -0.013610647181628 0.000000000000000 255 0 0
0.022731768388106 -0.013610647181628 0.000000000000000 255 0 0
0.024153677621283 -0.013610647181628 0.000000000000000 255 0 0
-0.024191236306729 -0.011872025052192 0.000000000000000 255 0 0
-0.022769327073552 -0.011872025052192 0.000000000000000 255 0 0
-0.021347417840376 -0.011872025052192 0.000000000000000 255 0 0
-0.019925508607199 -0.011872025052192 0.000000000000000 255 0 0
-0.018503599374022 -0.011872025052192 0.000000000000000 255 0 0
-0.017081690140845 -0.011872025052192 0.000000000000000 255 0 0
-0.015659780907668 -0.011872025052192 0.000000000000000 255 0 0
-0.014237871674491 -0.011872025052192 0.000000000000000 255 0 0
-0.012815962441315 -0.011872025052192 0.000000000000000 255 0 0
-0.011394053208138 -0.011872025052192 0.000000000000000 255 0 0
-0.009972143974961 -0.011872025052192 0.000000000000000 255 0 0
-0.008550234741784 -0.011872025052192 0.000000000000000 255 0 0
-0.007128325508607 -0.011872025052192 0.000000000000000 255 0 0
-0.005706416275430 -0.011872025052192 0.000000000000000 255 0 0
-0.004284507042254 -0.011872025052192 0.000000000000000 255 0 0
-0.002862597809077 -0.011872025052192 0.000000000000000 255 0 0
-0.001440688575900 -0.011872025052192 0.000000000000000 255 0 0
-0.000018779342723 -0.011872025052192 0.000000000000000 255 0 0
0.001403129890454 -0.011872025052192 0.000000000000000 255 0 0
0.002825039123631 -0.011872025052192 0.000000000000000 255 0 0
0.004246948356808 -0.011872025052192 0.000000000000000 255 0 0
0.005668857589984 -0.011872025052192 0.000000000000000 255 0 0
0.007090766823161 -0.011872025052192 0.000000000000000 255 0 0
0.008512676056338 -0.011872025052192 0.000000000000000 255 0 0
0.009934585289515 -0.011872025052192 0.000000000000000 255 0 0
0.011356494522692 -0.011872025052192 0.000000000000000 255 0 0
0.012778403755869 -0.011872025052192 0.000000000000000 255 0 0
0.014200312989045 -0.011872025052192 0.000000000000000 255 0 0
0.015622222222222 -0.011872025052192 0.000000000000000 255 0 0
0.017044131455399 -0.011872025052192 0.000000000000000 255 0 0
0.018466040688576 -0.011872025052192 0.000000000000000 255 0 0
0.019887949921753 -0.011872025052192 0.000000000000000 255 0 0
0.021309859154930 -0.011872025052192 0.000000000000000 255 0 0
0.022731768388106 -0.011872025052192 0.000000000000000 255 0 0
0.024153677621283 -0.011872025052192 0.000000000000000 255 0 0
-0.024191236306729 -0.010133402922756 0.000000000000000 255 0 0
-0.022769327073552 -0.010133402922756 0.000000000000000 255 0 0
-0.021347417840376 -0.010133402922756 0.000000000000000 255 0 0
-0.019925508607199 -0.010133402922756 0.000000000000000 255 0 0
-0.018503599374022 -0.010133402922756 0.000000000000000 255 0 0
-0.017081690140845 -0.010133402922756 0.000000000000000 255 0 0
-0.015659780907668 -0.010133402922756 0.000000000000000 255 0 0
-0.014237871674491 -0.010133402922756 0.000000000000000 255 0 0
-0.012815962441315 -0.010133402922756 0.000000000000000 255 0 0
-0.011394053208138 -0.010133402922756 0.000000000000000 255 0 0
-0.009972143974961 -0.010133402922756 0.000000000000000 255 0 0
-0.008550234741784 -0.010133402922756 0.000000000000000 255 0 0
-0.007128325508607 -0.010133402922756 0.000000000000000 255 0 0
-0.005706416275430 -0.010133402922756 0.000000000000000 255 0 0
-0.004284507042254 -0.010133402922756 0.000000000000000 255 0 0
-0.002862597809077 -0.010133402922756 0.000000000000000 255 0 0
-0.001440688575900 -0.010133402922756 0.000000000000000 255 0 0
-0.000018779342723 -0.010133402922756 0.000000000000000 255 0 0
0.001403129890454 -0.010133402922756 0.000000000000000 255 0 0
0.002825039123631 -0.010133402922756 0.000000000000000 255 0 0
0.004246948356808 -0.010133402922756 0.000000000000000 255 0 0
0.005668857589984 -0.010133402922756 0.000000000000000 255 0 0
0.007090766823161 -0.010133402922756 0.000000000000000 255 0 0
0.008512676056338 -0.010133402922756 0.000000000000000 255 0 0
0.009934585289515 -0.010133402922756 0.000000000000000 255 0 0
0.011356494522692 -0.010133402922756 0.000000000000000 255 0 0
0.012778403755869 -0.010133402922756 0.000000000000000 255 0 0
0.014200312989045 -0.010133402922756 0.000000000000000 255 0 0
0.015622222222222 -0.010133402922756 0.000000000000000 255 0 0
0.017044131455399 -0.010133402922756 0.000000000000000 255 0 0
0.018466040688576 -0.010133402922756 0.000000000000000 255 0 0
0.019887949921753 -0.010133402922756 0.000000000000000 255 0 0
0.021309859154930 -0.010133402922756 0.000000000000000 255 0 0
0.022731768388106 -0.010133402922756 0.000000000000000 255 0 0
0.024153677621283 -0.010133402922756 0.000000000000000 255 0 0
-0.024191236306729 -0.008394780793319 0.000000000000000 255 0 0
-0.022769327073552 -0.008394780793319 0.000000000000000 255 0 0
-0.021347417840376 -0.008394780793319 0.000000000000000 255 0 0
-0.019925508607199 -0.008394780793319 0.000000000000000 255 0 0
-0.018503599374022 -0.008394780793319 0.000000000000000 255 0 0
-0.017081690140845 -0.008394780793319 0.000000000000000 255 0 0
-0.015659780907668 -0.008394780793319 0.000000000000000 255 0 0
-0.014237871674491 -0.008394780793319 0.000000000000000 255 0 0
-0.012815962441315 -0.008394780793319 0.000000000000000 255 0 0
-0.011394053208138 -0.008394780793319 0.000000000000000 255 0 0
-0.009972143974961 -0.008394780793319 0.000000000000000 255 0 0
-0.008550234741784 -0.008394780793319 0.000000000000000 255 0 0
-0.007128325508607 -0.008394780793319 0.000000000000000 255 0 0
-0.005706416275430 -0.008394780793319 0.000000000000000 255 0 0
-0.004284507042254 -0.008394780793319 0.000000000000000 255 0 0
-0.002862597809077 -0.008394780793319 0.000000000000000 255 0 0
-0.001440688575900 -0.008394780793319 0.000000000000000 255 0 0
-0.000018779342723 -0.008394780793319 0.000000000000000 255 0 0
0.001403129890454 -0.008394780793319 0.000000000000000 255 0 0
0.002825039123631 -0.008394780793319 0.000000000000000 255 0 0
0.004246948356808 -0.008394780793319 0.000000000000000 255 0 0
0.005668857589984 -0.008394780793319 0.000000000000000 255 0 0
0.007090766823161 -0.008394780793319 0.000000000000000 255 0 0
0.008512676056338 -0.008394780793319 0.000000000000000 255 0 0
0.009934585289515 -0.008394780793319 0.000000000000000 255 0 0
0.011356494522692 -0.008394780793319 0.000000000000000 255 0 0
0.012778403755869 -0.008394780793319 0.000000000000000 255 0 0
0.014200312989045 -0.008394780793319 0.000000000000000 255 0 0
0.015622222222222 -0.008394780793319 0.000000000000000 255 0 0
0.017044131455399 -0.008394780793319 0.000000000000000 255 0 0
0.018466040688576 -0.008394780793319 0.000000000000000 255 0 0
0.019887949921753 -0.008394780793319 0.000000000000000 255 0 0
0.021309859154930 -0.008394780793319 0.000000000000000 255 0 0
0.022731768388106 -0.008394780793319 0.000000000000000 255 0 0
0.024153677621283 -0.008394780793319 0.000000000000000 255 0 0
-0.024191236306729 -0.006656158663883 0.000000000000000 255 0 0
-0.022769327073552 -0.006656158663883 0.000000000000000 255 0 0
-0.021347417840376 -0.006656158663883 0.000000000000000 255 0 0
-0.019925508607199 -0.006656158663883 0.000000000000000 255 0 0
-0.018503599374022 -0.006656158663883 0.000000000000000 255 0 0
-0.017081690140845 -0.006656158663883 0.000000000000000 255 0 0
-0.015659780907668 -0.006656158663883 0.000000000000000 255 0 0
-0.014237871674491 -0.006656158663883 0.000000000000000 255 0 0
-0.012815962441315 -0.006656158663883 0.000000000000000 255 0 0
-0.011394053208138 -0.006656158663883 0.000000000000000 255 0 0
-0.009972143974961 -0.006656158663883 0.000000000000000 255 0 0
-0.008550234741784 -0.006656158663883 0.000000000000000 255 0 0
-0.007128325508607 -0.006656158663883 0.000000000000000 255 0 0
-0.005706416275430 -0.006656158663883 0.000000000000000 255 0 0
-0.004284507042254 -0.006656158663883 0.000000000000000 255 0 0
-0.002862597809077 -0.006656158663883 0.000000000000000 255 0 0
-0.001440688575900 -0.006656158663883 0.000000000000000 255 0 0
-0.000018779342723 -0.006656158663883 0.000000000000000 255 0 0
0.001403129890454 -0.006656158663883 0.000000000000000 255 0 0
0.002825039123631 -0.006656158663883 0.000000000000000 255 0 0
0.004246948356808 -0.006656158663883 0.000000000000000 255 0 0
0.005668857589984 -0.006656158663883 0.000000000000000 255 0 0
0.007090766823161 -0.006656158663883 0.000000000000000 255 0 0
0.008512676056338 -0.006656158663883 0.000000000000000 255 0 0
0.009934585289515 -0.006656158663883 0.000000000000000 255 0 0
0.011356494522692 -0.006656158663883 0.000000000000000 255 0 0
0.012778403755869 -0.006656158663883 0.000000000000000 255 0 0
0.014200312989045 -0.006656158663883 0.000000000000000 255 0 0
0.015622222222222 -0.006656158663883 0.000000000000000 255 0 0
0.017044131455399 -0.006656158663883 0.000000000000000 255 0 0
0.018466040688576 -0.006656158663883 0.000000000000000 255 0 0
0.019887949921753 -0.006656158663883 0.000000000000000 255 0 0
0.021309859154930 -0.006656158663883 0.000000000000000 255 0 0
0.022731768388106 -0.006656158663883 0.000000000000000 255 0 0
0.024153677621283 -0.006656158663883 0.000000000000000 255 0 0
-0.024191236306729 -0.004917536534447 0.000000000000000 255 0 0
-0.022769327073552 -0.004917536534447 0.000000000000000 255 0 0
-0.021347417840376 -0.004917536534447 0.000000000000000 255 0 0
-0.019925508607199 -0.004917536534447 0.000000000000000 255 0 0
-0.018503599374022 -0.004917536534447 0.000000000000000 255 0 0
-0.017081690140845 -0.004917536534447 0.000000000000000 255 0 0
-0.015659780907668 -0.004917536534447 0.000000000000000 255 0 0
-0.014237871674491 -0.004917536534447 0.000000000000000 255 0 0
-0.012815962441315 -0.004917536534447 0.000000000000000 255 0 0
-0.011394053208138 -0.004917536534447 0.000000000000000 255 0 0
-0.009972143974961 -0.004917536534447 0.000000000000000 255 0 0
-0.008550234741784 -0.004917536534447 0.000000000000000 255 0 0
-0.007128325508607 -0.004917536534447 0.000000000000000 255 0 0
-0.005706416275430 -0.004917536534447 0.000000000000000 255 0 0
-0.004284507042254 -0.004917536534447 0.000000000000000 255 0 0
-0.002862597809077 -0.004917536534447 0.000000000000000 255 0 0
-0.001440688575900 -0.004917536534447 0.000000000000000 255 0 0
-0.000018779342723 -0.004917536534447 0.000000000000000 255 0 0
0.001403129890454 -0.004917536534447 0.000000000000000 255 0 0
0.002825039123631 -0.004917536534447 0.000000000000000 255 0 0
0.004246948356808 -0.004917536534447 0.000000000000000 255 0 0
0.005668857589984 -0.004917536534447 0.000000000000000 255 0 0
0.007090766823161 -0.004917536534447 0.000000000000000 255 0 0
0.008512676056338 -0.004917536534447 0.000000000000000 255 0 0
0.009934585289515 -0.004917536534447 0.000000000000000 255 0 0
0.011356494522692 -0.004917536534447 0.000000000000000 255 0 0
0.012778403755869 -0.004917536534447 0.000000000000000 255 0 0
0.014200312989045 -0.004917536534447 0.000000000000000 255 0 0
0.015622222222222 -0.004917536534447 0.000000000000000 255 0 0
0.017044131455399 -0.004917536534447 0.000000000000000 255 0 0
0.018466040688576 -0.004917536534447 0.000000000000000 255 0 0
0.019887949921753 -0.004917536534447 0.000000000000000 255 0 0
0.021309859154930 -0.004917536534447 0.000000000000000 255 0 0
0.022731768388106 -0.004917536534447 0.000000000000000 255 0 0
0.024153677621283 -0.004917536534447 0.000000000000000 255 0 0
-0.024191236306729 -0.003178914405011 0.000000000000000 255 0 0
-0.022769327073552 -0.003178914405011 0.000000000000000 255 0 0
-0.021347417840376 -0.003178914405011 0.000000000000000 255 0 0
-0.019925508607199 -0.003178914405011 0.000000000000000 255 0 0
-0.018503599374022 -0.003178914405011 0.000000000000000 255 0 0
-0.017081690140845 -0.003178914405011 0.000000000000000 255 0 0
-0.015659780907668 -0.003178914405011 0.000000000000000 255 0 0
-0.014237871674491 -0.003178914405011 0.000000000000000 255 0 0
-0.012815962441315 -0.003178914405011 0.000000000000000 255 0 0
-0.011394053208138 -0.003178914405011 0.000000000000000 255 0 0
-0.009972143974961 -0.003178914405011 0.000000000000000 255 0 0
-0.008550234741784 -0.003178914405011 0.000000000000000 255 0 0
-0.007128325508607 -0.003178914405011 0.000000000000000 255 0 0
-0.005706416275430 -0.003178914405011 0.000000000000000 255 0 0
-0.004284507042254 -0.003178914405011 0.000000000000000 255 0 0
-0.002862597809077 -0.003178914405011 0.000000000000000 255 0 0
-0.001440688575900 -0.003178914405011 0.000000000000000 255 0 0
-0.000018779342723 -0.003178914405011 0.000000000000000 255 0 0
0.001403129890454 -0.003178914405011 0.000000000000000 255 0 0
0.002825039123631 -0.003178914405011 0.000000000000000 255 0 0
0.004246948356808 -0.003178914405011 0.000000000000000 255 0 0
0.005668857589984 -0.003178914405011 0.000000000000000 255 0 0
0.007090766823161 -0.003178914405011 0.000000000000000 255 0 0
0.008512676056338 -0.003178914405011 0.000000000000000 255 0 0
0.009934585289515 -0.003178914405011 0.000000000000000 255 0 0
0.011356494522692 -0.003178914405011 0.000000000000000 255 0 0
0.012778403755869 -0.003178914405011 0.000000000000000 255 0 0
0.014200312989045 -0.003178914405011 0.000000000000000 255 0 0
0.015622222222222 -0.003178914405011 0.000000000000000 255 0 0
0.017044131455399 -0.003178914405011 0.000000000000000 255 0 0
0.018466040688576 -0.003178914405011 0.000000000000000 255 0 0
0.019887949921753 -0.003178914405011 0.000000000000000 255 0 0
0.021309859154930 -0.003178914405011 0.000000000000000 255 0 0
0.022731768388106 -0.003178914405011 0.000000000000000 255 0 0
0.024153677621283 -0.003178914405011 0.000000000000000 255 0 0
-0.024191236306729 -0.001440292275574 0.000000000000000 255 0 0
-0.022769327073552 -0.001440292275574 0.000000000000000 255 0 0
-0.021347417840376 -0.001440292275574 0.000000000000000 255 0 0
-0.019925508607199 -0.001440292275574 0.000000000000000 255 0 0
-0.018503599374022 -0.001440292275574 0.000000000000000 255 0 0
-0.017081690140845 -0.001440292275574 0.000000000000000 255 0 0
-0.015659780907668 -0.001440292275574 0.000000000000000 255 0 0
-0.014237871674491 -0.001440292275574 0.000000000000000 255 0 0
-0.012815962441315 -0.001440292275574 0.000000000000000 255 0 0
-0.011394053208138 -0.001440292275574 0.000000000000000 255 0 0
-0.009972143974961 -0.001440292275574 0.000000000000000 255 0 0
-0.008550234741784 -0.001440292275574 0.000000000000000 255 0 0
-0.007128325508607 -0.001440292275574 0.000000000000000 255 0 0
-0.005706416275430 -0.001440292275574 0.000000000000000 255 0 0
-0.004284507042254 -0.001440292275574 0.000000000000000 255 0 0
-0.002862597809077 -0.001440292275574 0.000000000000000 255 0 0
-0.001440688575900 -0.001440292275574 0.000000000000000 255 0 0
-0.000018779342723 -0.001440292275574 0.000000000000000 255 0 0
0.001403129890454 -0.001440292275574 0.000000000000000 255 0 0
0.002825039123631 -0.001440292275574 0.000000000000000 255 0 0
0.004246948356808 -0.001440292275574 0.000000000000000 255 0 0
0.005668857589984 -0.001440292275574 0.000000000000000 255 0 0
0.007090766823161 -0.001440292275574 0.000000000000000 255 0 0
0.008512676056338 -0.001440292275574 0.000000000000000 255 0 0
0.009934585289515 -0.001440292275574 0.000000000000000 255 0 0
0.011356494522692 -0.001440292275574 0.000000000000000 255 0 0
0.012778403755869 -0.001440292275574 0.000000000000000 255 0 0
0.014200312989045 -0.001440292275574 0.000000000000000 255 0 0
0.015622222222222 -0.001440292275574 0.000000000000000 255 0 0
0.017044131455399 -0.001440292275574 0.000000000000000 255 0 0
0.018466040688576 -0.001440292275574 0.000000000000000 255 0 0
0.019887949921753 -0.001440292275574 0.000000000000000 255 0 0
0.021309859154930 -0.001440292275574 0.000000000000000 255 0 0
0.022731768388106 -0.001440292275574 0.000000000000000 255 0 0
0.024153677621283 -0.001440292275574 0.000000000000000 255 0 0
-0.024191236306729 0.000298329853862 0.000000000000000 255 0 0
-0.022769327073552 0.000298329853862 0.000000000000000 255 0 0
-0.021347417840376 0.000298329853862 0.000000000000000 255 0 0
-0.019925508607199 0.000298329853862 0.000000000000000 255 0 0
-0.018503599374022 0.000298329853862 0.000000000000000 255 0 0
-0.017081690140845 0.000298329853862 0.000000000000000 255 0 0
-0.015659780907668 0.000298329853862 0.000000000000000 255 0 0
-0.014237871674491 0.000298329853862 0.000000000000000 255 0 0
-0.012815962441315 0.000298329853862 0.000000000000000 255 0 0
-0.011394053208138 0.000298329853862 0.000000000000000 255 0 0
-0.009972143974961 0.000298329853862 0.000000000000000 255 0 0
-0.008550234741784 0.000298329853862 0.000000000000000 255 0 0
-0.007128325508607 0.000298329853862 0.000000000000000 255 0 0
-0.005706416275430 0.000298329853862 0.000000000000000 255 0 0
-0.004284507042254 0.000298329853862 0.000000000000000 255 0 0
-0.002862597809077 0.000298329853862 0.000000000000000 255 0 0
-0.001440688575900 0.000298329853862 0.000000000000000 255 0 0
-0.000018779342723 0.000298329853862 0.000000000000000 255 0 0
0.001403129890454 0.000298329853862 0.000000000000000 255 0 0
0.002825039123631 0.000298329853862 0.000000000000000 255 0 0
0.004246948356808 0.000298329853862 0.000000000000000 255 0 0
0.005668857589984 0.000298329853862 0.000000000000000 255 0 0
0.007090766823161 0.000298329853862 0.000000000000000 255 0 0
0.008512676056338 0.000298329853862 0.000000000000000 255 0 0
0.009934585289515 0.000298329853862 0.000000000000000 255 0 0
0.011356494522692 0.000298329853862 0.000000000000000 255 0 0
0.012778403755869 0.000298329853862 0.000000000000000 255 0 0
0.014200312989045 0.000298329853862 0.000000000000000 255 0 0
0.015622222222222 0.000298329853862 0.000000000000000 255 0 0
0.017044131455399 0.000298329853862 0.000000000000000 255 0 0
0.018466040688576 0.000298329853862 0.000000000000000 255 0 0
0.019887949921753 0.000298329853862 0.000000000000000 255 0 0
0.021309859154930 0.000298329853862 0.000000000000000 255 0 0
0.022731768388106 0.000298329853862 0.000000000000000 255 0 0
0.024153677621283 0.000298329853862 0.000000000000000 255 0 0
-0.024191236306729 0.002036951983299 0.000000000000000 255 0 0
-0.022769327073552 0.002036951983299 0.000000000000000 255 0 0
-0.021347417840376 0.002036951983299 0.000000000000000 255 0 0
-0.019925508607199 0.002036951983299 0.000000000000000 255 0 0
-0.018503599374022 0.002036951983299 0.000000000000000 255 0 0
-0.017081690140845 0.002036951983299 0.000000000000000 255 0 0
-0.015659780907668 0.002036951983299 0.000000000000000 255 0 0
-0.014237871674491 0.002036951983299 0.000000000000000 255 0 0
-0.012815962441315 0.002036951983299 0.000000000000000 255 0 0
-0.011394053208138 0.002036951983299 0.000000000000000 255 0 0
-0.009972143974961 0.002036951983299 0.000000000000000 255 0 0
-0.008550234741784 0.002036951983299 0.000000000000000 255 0 0
-0.007128325508607 0.002036951983299 0.000000000000000 255 0 0
-0.005706416275430 0.002036951983299 0.000000000000000 255 0 0
-0.004284507042254 0.002036951983299 0.000000000000000 255 0 0
-0.002862597809077 0.002036951983299 0.000000000000000 255 0 0
-0.001440688575900 0.002036951983299 0.000000000000000 255 0 0
-0.000018779342723 0.002036951983299 0.000000000000000 255 0 0
0.001403129890454 0.002036951983299 0.000000000000000 255 0 0
0.002825039123631 0.002036951983299 0.000000000000000 255 0 0
0.004246948356808 0.002036951983299 0.000000000000000 255 0 0
0.005668857589984 0.002036951983299 0.000000000000000 255 0 0
0.007090766823161 0.002036951983299 0.000000000000000 255 0 0
0.008512676056338 0.002036951983299 0.000000000000000 255 0 0
0.009934585289515 0.002036951983299 0.000000000000000 255 0 0
0.011356494522692 0.002036951983299 0.000000000000000 255 0 0
0.012778403755869 0.002036951983299 0.000000000000000 255 0 0
0.014200312989045 0.002036951983299 0.000000000000000 255 0 0
0.015622222222222 0.002036951983299 0.000000000000000 255 0 0
0.017044131455399 0.002036951983299 0.000000000000000 255 0 0
0.018466040688576 0.002036951983299 0.000000000000000 255 0 0
0.019887949921753 0.002036951983299 0.000000000000000 255 0 0
0.021309859154930 0.002036951983299 0.000000000000000 255 0 0
0.022731768388106 0.002036951983299 0.000000000000000 255 0 0
0.024153677621283 0.002036951983299 0.000000000000000 255 0 0
-0.024191236306729 0.003775574112735 0.000000000000000 255 0 0
-0.022769327073552 0.003775574112735 0.000000000000000 255 0 0
-0.021347417840376 0.003775574112735 0.000000000000000 255 0 0
-0.019925508607199 0.003775574112735 0.000000000000000 255 0 0
-0.018503599374022 0.003775574112735 0.000000000000000 255 0 0
-0.017081690140845 0.003775574112735 0.000000000000000 255 0 0
-0.015659780907668 0.003775574112735 0.000000000000000 255 0 0
-0.014237871674491 0.003775574112735 0.000000000000000 255 0 0
-0.012815962441315 0.003775574112735 0.000000000000000 255 0 0
-0.011394053208138 0.003775574112735 0.000000000000000 255 0 0
-0.009972143974961 0.003775574112735 0.000000000000000 255 0 0
-0.008550234741784 0.003775574112735 0.000000000000000 255 0 0
-0.007128325508607 0.003775574112735 0.000000000000000 255 0 0
-0.005706416275430 0.003775574112735 0.000000000000000 255 0 0
-0.004284507042254 0.003775574112735 0.000000000000000 255 0 0
-0.002862597809077 0.003775574112735 0.000000000000000 255 0 0
-0.001440688575900 0.003775574112735 0.000000000000000 255 0 0
-0.000018779342723 0.003775574112735 0.000000000000000 255 0 0
0.001403129890454 0.003775574112735 0.000000000000000 255 0 0
0.002825039123631 0.003775574112735 0.000000000000000 255 0 0
0.004246948356808 0.003775574112735 0.000000000000000 255 0 0
0.005668857589984 0.003775574112735 0.000000000000000 255 0 0
0.007090766823161 0.003775574112735 0.000000000000000 255 0 0
0.008512676056338 0.003775574112735 0.000000000000000 255 0 0
0.009934585289515 0.003775574112735 0.000000000000000 255 0 0
0.011356494522692 0.003775574112735 0.000000000000000 255 0 0
0.012778403755869 0.003775574112735 0.000000000000000 255 0 0
0.014200312989045 0.003775574112735 0.000000000000000 255 0 0
0.015622222222222 0.003775574112735 0.000000000000000 255 0 0
0.017044131455399 0.003775574112735 0.000000000000000 255 0 0
0.018466040688576 0.003775574112735 0.000000000000000 255 0 0
0.019887949921753 0.003775574112735 0.000000000000000 255 0 0
0.021309859154930 0.003775574112735 0.000000000000000 255 0 0
0.022731768388106 0.003775574112735 0.000000000000000 255 0 0
0.024153677621283 0.003775574112735 0.000000000000000 255 0 0
-0.024191236306729 0.005514196242171 0.000000000000000 255 0 0
-0.022769327073552 0.005514196242171 0.000000000000000 255 0 0
-0.021347417840376 0.005514196242171 0.000000000000000 255 0 0
-0.019925508607199 0.005514196242171 0.000000000000000 255 0 0
-0.018503599374022 0.005514196242171 0.000000000000000 255 0 0
-0.017081690140845 0.005514196242171 0.000000000000000 255 0 0
-0.015659780907668 0.005514196242171 0.000000000000000 255 0 0
-0.014237871674491 0.005514196242171 0.000000000000000 255 0 0
-0.012815962441315 0.005514196242171 0.000000000000000 255 0 0
-0.011394053208138 0.005514196242171 0.000000000000000 255 0 0
-0.009972143974961 0.005514196242171 0.000000000000000 255 0 0
-0.008550234741784 0.005514196242171 0.000000000000000 255 0 0
-0.007128325508607 0.005514196242171 0.000000000000000 255 0 0
-0.005706416275430 0.005514196242171 0.000000000000000 255 0 0
-0.004284507042254 0.005514196242171 0.000000000000000 255 0 0
-0.002862597809077 0.005514196242171 0.000000000000000 255 0 0
-0.001440688575900 0.005514196242171 0.000000000000000 255 0 0
-0.000018779342723 0.005514196242171 0.000000000000000 255 0 0
0.001403129890454 0.005514196242171 0.000000000000000 255 0 0
0.002825039123631 0.005514196242171 0.000000000000000 255 0 0
0.004246948356808 0.005514196242171 0.000000000000000 255 0 0
0.005668857589984 0.005514196242171 0.000000000000000 255 0 0
0.007090766823161 0.005514196242171 0.000000000000000 255 0 0
0.008512676056338 0.005514196242171 0.000000000000000 255 0 0
0.009934585289515 0.005514196242171 0.000000000000000 255 0 0
0.011356494522692 0.005514196242171 0.000000000000000 255 0 0
0.012778403755869 0.005514196242171 0.000000000000000 255 0 0
0.014200312989045 0.005514196242171 0.000000000000000 255 0 0
0.015622222222222 0.005514196242171 0.000000000000000 255 0 0
0.017044131455399 0.005514196242171 0.000000000000000 255 0 0
0.018466040688576 0.005514196242171 0.000000000000000 255 0 0
0.019887949921753 0.005514196242171 0.000000000000000 255 0 0
0.021309859154930 0.005514196242171 0.000000000000000 255 0 0
0.022731768388106 0.005514196242171 0.000000000000000 255 0 0
0.024153677621283 0.005514196242171 0.000000000000000 255 0 0
-0.024191236306729 0.007252818371607 0.000000000000000 255 0 0
-0.022769327073552 0.007252818371607 0.000000000000000 255 0 0
-0.021347417840376 0.007252818371607 0.000000000000000 255 0 0
-0.019925508607199 0.007252818371607 0.000000000000000 255 0 0
-0.018503599374022 0.007252818371607 0.000000000000000 255 0 0
-0.017081690140845 0.007252818371607 0.000000000000000 255 0 0
-0.015659780907668 0.007252818371607 0.000000000000000 255 0 0
-0.014237871674491 0.007252818371607 0.000000000000000 255 0 0
-0.012815962441315 0.007252818371607 0.000000000000000 255 0 0
-0.011394053208138 0.007252818371607 0.000000000000000 255 0 0
-0.009972143974961 0.007252818371607 0.000000000000000 255 0 0
-0.008550234741784 0.007252818371607 0.000000000000000 255 0 0
-0.007128325508607 0.007252818371607 0.000000000000000 255 0 0
-0.005706416275430 0.007252818371607 0.000000000000000 255 0 0
-0.004284507042254 0.007252818371607 0.000000000000000 255 0 0
-0.002862597809077 0.007252818371607 0.000000000000000 255 0 0
-0.001440688575900 0.007252818371607 0.000000000000000 255 0 0
-0.000018779342723 0.007252818371607 0.000000000000000 255 0 0
0.001403129890454 0.007252818371607 0.000000000000000 255 0 0
0.002825039123631 0.007252818371607 0.000000000000000 255 0 0
0.004246948356808 0.007252818371607 0.000000000000000 255 0 0
0.005668857589984 0.007252818371607 0.000000000000000 255 0 0
0.007090766823161 0.007252818371607 0.000000000000000 255 0 0
0.008512676056338 0.007252818371607 0.000000000000000 255 0 0
0.009934585289515 0.007252818371607 0.000000000000000 255 0 0
0.011356494522692 0.007252818371607 0.000000000000000 255 0 0
0.012778403755869 0.007252818371607 0.000000000000000 255 0 0
0.014200312989045 0.007252818371607 0.000000000000000 255 0 0
0.015622222222222 0.007252818371607 0.000000000000000 255 0 0
0.017044131455399 0.007252818371607 0.000000000000000 255 0 0
0.018466040688576 0.007252818371607 0.000000000000000 255 0 0
0.019887949921753 0.007252818371607 0.000000000000000 255 0 0
0.021309859154930 0.007252818371607 0.000000000000000 255 0 0
0.022731768388106 0.007252818371607 0.000000000000000 255 0 0
0.024153677621283 0.007252818371607 0.000000000000000 255 0 0
-0.024191236306729 0.008991440501044 0.000000000000000 255 0 0
-0.022769327073552 0.008991440501044 0.000000000000000 255 0 0
-0.021347417840376 0.008991440501044 0.000000000000000 255 0 0
-0.019925508607199 0.008991440501044 0.000000000000000 255 0 0
-0.018503599374022 0.008991440501044 0.000000000000000 255 0 0
-0.017081690140845 0.008991440501044 0.000000000000000 255 0 0
-0.015659780907668 0.008991440501044 0.000000000000000 255 0 0
-0.014237871674491 0.008991440501044 0.000000000000000 255 0 0
-0.012815962441315 0.008991440501044 0.000000000000000 255 0 0
-0.011394053208138 0.008991440501044 0.000000000000000 255 0 0
-0.009972143974961 0.008991440501044 0.000000000000000 255 0 0
-0.008550234741784 0.008991440501044 0.000000000000000 255 0 0
-0.007128325508607 0.008991440501044 0.000000000000000 255 0 0
-0.005706416275430 0.008991440501044 0.000000000000000 255 0 0
-0.004284507042254 0.008991440501044 0.000000000000000 255 0 0
-0.002862597809077 0.008991440501044 0.000000000000000 255 0 0
-0.001440688575900 0.008991440501044 0.000000000000000 255 0 0
-0.000018779342723 0.008991440501044 0.000000000000000 255 0 0
0.001403129890454 0.008991440501044 0.000000000000000 255 0 0
0.002825039123631 0.008991440501044 0.000000000000000 255 0 0
0.004246948356808 0.008991440501044 0.000000000000000 255 0 0
0.005668857589984 0.008991440501044 0.000000000000000 255 0 0
0.007090766823161 0.008991440501044 0.000000000000000 255 0 0
0.008512676056338 0.008991440501044 0.000000000000000 255 0 0
0.009934585289515 0.008991440501044 0.000000000000000 255 0 0
0.011356494522692 0.008991440501044 0.000000000000000 255 0 0
0.012778403755869 0.008991440501044 0.000000000000000 255 0 0
0.014200312989045 0.008991440501044 0.000000000000000 255 0 0
0.015622222222222 0.008991440501044 0.000000000000000 255 0 0
0.017044131455399 0.008991440501044 0.000000000000000 255 0 0
0.018466040688576 0.008991440501044 0.000000000000000 255 0 0
0.019887949921753 0.008991440501044 0.000000000000000 255 0 0
0.021309859154930 0.008991440501044 0.000000000000000 255 0 0
0.022731768388106 0.008991440501044 0.000000000000000 255 0 0
0.024153677621283 0.008991440501044 0.000000000000000 255 0 0
-0.024191236306729 0.010730062630480 0.000000000000000 255 0 0
-0.022769327073552 0.010730062630480 0.000000000000000 255 0 0
-0.021347417840376 0.010730062630480 0.000000000000000 255 0 0
-0.019925508607199 0.010730062630480 0.000000000000000 255 0 0
-0.018503599374022 0.010730062630480 0.000000000000000 255 0 0
-0.017081690140845 0.010730062630480 0.000000000000000 255 0 0
-0.015659780907668 0.010730062630480 0.000000000000000 255 0 0
-0.014237871674491 0.010730062630480 0.000000000000000 255 0 0
-0.012815962441315 0.010730062630480 0.000000000000000 255 0 0
-0.011394053208138 0.010730062630480 0.000000000000000 255 0 0
-0.009972143974961 0.010730062630480 0.000000000000000 255 0 0
-0.008550234741784 0.010730062630480 0.000000000000000 255 0 0
-0.007128325508607 0.010730062630480 0.000000000000000 255 0 0
-0.005706416275430 0.010730062630480 0.000000000000000 255 0 0
-0.004284507042254 0.010730062630480 0.000000000000000 255 0 0
-0.002862597809077 0.010730062630480 0.000000000000000 255 0 0
-0.001440688575900 0.010730062630480 0.000000000000000 255 0 0
-0.000018779342723 0.010730062630480 0.000000000000000 255 0 0
0.001403129890454 0.010730062630480 0.000000000000000 255 0 0
0.002825039123631 0.010730062630480 0.000000000000000 255 0 0
0.004246948356808 0.010730062630480 0.000000000000000 255 0 0
0.005668857589984 0.010730062630480 0.000000000000000 255 0 0
0.007090766823161 0.010730062630480 0.000000000000000 255 0 0
0.008512676056338 0.010730062630480 0.000000000000000 255 0 0
0.009934585289515 0.010730062630480 0.000000000000000 255 0 0
0.011356494522692 0.010730062630480 0.000000000000000 255 0 0
0.012778403755869 0.010730062630480 0.000000000000000 255 0 0
0.014200312989045 0.010730062630480 0.000000000000000 255 0 0
0.015622222222222 0.010730062630480 0.000000000000000 255 0 0
0.017044131455399 0.010730062630480 0.000000000000000 255 0 0
0.018466040688576 0.010730062630480 0.000000000000000 255 0 0
0.019887949921753 0.010730062630480 0.000000000000000 255 0 0
0.021309859154930 0.010730062630480 0.000000000000000 255 0 0
0.022731768388106 0.010730062630480 0.000000000000000 255 0 0
0.024153677621283 0.010730062630480 0.000000000000000 255 0 0
-0.024191236306729 0.012468684759916 0.000000000000000 255 0 0
-0.022769327073552 0.012468684759916 0.000000000000000 255 0 0
-0.021347417840376 0.012468684759916 0.000000000000000 255 0 0
-0.019925508607199 0.012468684759916 0.000000000000000 255 0 0
-0.018503599374022 0.012468684759916 0.000000000000000 255 0 0
-0.017081690140845 0.012468684759916 0.000000000000000 255 0 0
-0.015659780907668 0.012468684759916 0.000000000000000 255 0 0
-0.014237871674491 0.012468684759916 0.000000000000000 255 0 0
-0.012815962441315 0.012468684759916 0.000000000000000 255 0 0
-0.011394053208138 0.012468684759916 0.000000000000000 255 0 0
-0.009972143974961 0.012468684759916 0.000000000000000 255 0 0
-0.008550234741784 0.012468684759916 0.000000000000000 255 0 0
-0.007128325508607 0.012468684759916 0.000000000000000 255 0 0
-0.005706416275430 0.012468684759916 0.000000000000000 255 0 0
-0.004284507042254 0.012468684759916 0.000000000000000 255 0 0
-0.002862597809077 0.012468684759916 0.000000000000000 255 0 0
-0.001440688575900 0.012468684759916 0.000000000000000 255 0 0
-0.000018779342723 0.012468684759916 0.000000000000000 255 0 0
0.001403129890454 0.012468684759916 0.000000000000000 255 0 0
0.002825039123631 0.012468684759916 0.000000000000000 255 0 0
0.004246948356808 0.012468684759916 0.000000000000000 255 0 0
0.005668857589984 0.012468684759916 0.000000000000000 255 0 0
0.007090766823161 0.012468684759916 0.000000000000000 255 0 0
0.008512676056338 0.012468684759916 0.000000000000000 255 0 0
0.009934585289515 0.012468684759916 0.000000000000000 255 0 0
0.011356494522692 0.012468684759916 0.000000000000000 255 0 0
0.012778403755869 0.012468684759916 0.000000000000000 255 0 0
0.014200312989045 0.012468684759916 0.000000000000000 255 0 0
0.015622222222222 0.012468684759916 0.000000000000000 255 0 0
0.017044131455399 0.012468684759916 0.000000000000000 255 0 0
0.018466040688576 0.012468684759916 0.000000000000000 255 0 0
0.019887949921753 0.012468684759916 0.000000000000000 255 0 0
0.021309859154930 0.012468684759916 0.000000000000000 255 0 0
0.022731768388106 0.012468684759916 0.000000000000000 255 0 0
0.024153677621283 0.012468684759916 0.000000000000000 255 0 0
-0.024191236306729 0.014207306889353 0.000000000000000 255 0 0
-0.022769327073552 0.014207306889353 0.000000000000000 255 0 0
-0.021347417840376 0.014207306889353 0.000000000000000 255 0 0
-0.019925508607199 0.014207306889353 0.000000000000000 255 0 0
-0.018503599374022 0.014207306889353 0.000000000000000 255 0 0
-0.017081690140845 0.014207306889353 0.000000000000000 255 0 0
-0.015659780907668 0.014207306889353 0.000000000000000 255 0 0
-0.014237871674491 0.014207306889353 0.000000000000000 255 0 0
-0.012815962441315 0.014207306889353 0.000000000000000 255 0 0
-0.011394053208138 0.014207306889353 0.000000000000000 255 0 0
-0.009972143974961 0.014207306889353 0.000000000000000 255 0 0
-0.008550234741784 0.014207306889353 0.000000000000000 255 0 0
-0.007128325508607 0.014207306889353 0.000000000000000 255 0 0
-0.005706416275430 0.014207306889353 0.000000000000000 255 0 0
-0.004284507042254 0.014207306889353 0.000000000000000 255 0 0
-0.002862597809077 0.014207306889353 0.000000000000000 255 0 0
-0.001440688575900 0.014207306889353 0.000000000000000 255 0 0
-0.000018779342723 0.014207306889353 0.000000000000000 255 0 0
0.001403129890454 0.014207306889353 0.000000000000000 255 0 0
0.002825039123631 0.014207306889353 0.000000000000000 255 0 0
0.004246948356808 0.014207306889353 0.000000000000000 255 0 0
0.005668857589984 0.014207306889353 0.000000000000000 255 0 0
0.007090766823161 0.014207306889353 0.000000000000000 255 0 0
0.008512676056338 0.014207306889353 0.000000000000000 255 0 0
0.009934585289515 0.014207306889353 0.000000000000000 255 0 0
0.011356494522692 0.014207306889353 0.000000000000000 255 0 0
0.012778403755869 0.014207306889353 0.000000000000000 255 0 0
0.014200312989045 0.014207306889353 0.000000000000000 255 0 0
0.015622222222222 0.014207306889353 0.000000000000000 255 0 0
0.017044131455399 0.014207306889353 0.000000000000000 255 0 0
0.018466040688576 0.014207306889353 0.000000000000000 255 0 0
0.019887949921753 0.014207306889353 0.000000000000000 255 0 0
0.021309859154930 0.014207306889353 0.000000000000000 255 0 0
0.022731768388106 0.014207306889353 0.000000000000000 255 0 0
0.024153677621283 0.014207306889353 0.000000000000000 255 0 0
