ply
format ascii 1.0
element vertex 595
property double x
property double y
property double z
property uchar red
property uchar green
property uchar blue
end_header
-0.023829088516833 -0.012330325441652 0.000000000000000 255 0 0
-0.022255192400995 -0.012330325441652 0.000000000000000 255 0 0
-0.023761844122250 -0.012330325441652 0.000000000000000 255 0 0
-0.016364196844144 -0.012330325441652 0.000000000000000 255 0 0
-0.020394624548448 -0.012330325441652 0.000000000000000 255 0 0
-0.018789451364194 -0.012330325441652 0.000000000000000 255 0 0
-0.018161374543562 -0.012330325441652 0.000000000000000 255 0 0
-0.019686546423991 -0.012330325441652 0.000000000000000 255 0 0
-0.013949353572498 -0.012330325441652 0.000000000000000 255 0 0
-0.010345537502574 -0.012330325441652 0.000000000000000 255 0 0
-0.012092721615629 -0.012330325441652 0.000000000000000 255 0 0
-0.011246647037394 -0.012330325441652 0.000000000000000 255 0 0
-0.006655120624445 -0.012330325441652 0.000000000000000 255 0 0
-0.010396590776136 -0.012330325441652 0.000000000000000 255 0 0
-0.000839560006506 -0.012330325441652 0.000000000000000 255 0 0
0.001071141785785 -0.012330325441652 0.000000000000000 255 0 0
0.000275525906442 -0.012330325441652 0.000000000000000 255 0 0
0.001052307426236 -0.012330325441652 0.000000000000000 255 0 0
-0.001647319089596 -0.012330325441652 0.000000000000000 255 0 0
-0.001822387521197 -0.012330325441652 0.000000000000000 255 0 0
0.001136756126308 -0.012330325441652 0.000000000000000 255 0 0
0.004725275113812 -0.012330325441652 0.000000000000000 255 0 0
0.001792821782190 -0.012330325441652 0.000000000000000 255 0 0
0.010347474331120 -0.012330325441652 0.000000000000000 255 0 0
0.008596937188428 -0.012330325441652 0.000000000000000 255 0 0
0.009687217832221 -0.012330325441652 0.000000000000000 255 0 0
0.010270697539576 -0.012330325441652 0.000000000000000 255 0 0
0.012497798956660 -0.012330325441652 0.000000000000000 255 0 0
0.016905543561621 -0.012330325441652 0.000000000000000 255 0 0
0.018123230808441 -0.012330325441652 0.000000000000000 255 0 0
0.021201911124923 -0.012330325441652 0.000000000000000 255 0 0
0.018229305913143 -0.012330325441652 0.000000000000000 255 0 0
0.019848343214980 -0.012330325441652 0.000000000000000 255 0 0
0.018877124450075 -0.012330325441652 0.000000000000000 255 0 0
0.024673644192939 -0.012330325441652 0.000000000000000 255 0 0
-0.023829088516833 -0.004882935535136 0.000000000000000 255 0 0
-0.022255192400995 -0.004882935535136 0.000000000000000 255 0 0
-0.023761844122250 -0.004882935535136 0.000000000000000 255 0 0
-0.016364196844144 -0.004882935535136 0.000000000000000 255 0 0
-0.020394624548448 -0.004882935535136 0.000000000000000 255 0 0
-0.018789451364194 -0.004882935535136 0.000000000000000 255 0 0
-0.018161374543562 -0.004882935535136 0.000000000000000 255 0 0
-0.019686546423991 -0.004882935535136 0.000000000000000 255 0 0
-0.013949353572498 -0.004882935535136 0.000000000000000 255 0 0
-0.010345537502574 -0.004882935535136 0.000000000000000 255 0 0
-0.012092721615629 -0.004882935535136 0.000000000000000 255 0 0
-0.011246647037394 -0.004882935535136 0.000000000000000 255 0 0
-0.006655120624445 -0.004882935535136 0.000000000000000 255 0 0
-0.010396590776136 -0.004882935535136 0.000000000000000 255 0 0
-0.000839560006506 -0.004882935535136 0.000000000000000 255 0 0
0.001071141785785 -0.004882935535136 0.000000000000000 255 0 0
0.000275525906442 -0.004882935535136 0.000000000000000 255 0 0
0.001052307426236 -0.004882935535136 0.000000000000000 255 0 0
-0.001647319089596 -0.004882935535136 0.000000000000000 255 0 0
-0.001822387521197 -0.004882935535136 0.000000000000000 255 0 0
0.001136756126308 -0.004882935535136 0.000000000000000 255 0 0
0.004725275113812 -0.004882935535136 0.000000000000000 255 0 0
0.001792821782190 -0.004882935535136 0.000000000000000 255 0 0
0.010347474331120 -0.004882935535136 0.000000000000000 255 0 0
0.008596937188428 -0.004882935535136 0.000000000000000 255 0 0
0.009687217832221 -0.004882935535136 0.000000000000000 255 0 0
0.010270697539576 -0.004882935535136 0.000000000000000 255 0 0
0.012497798956660 -0.004882935535136 0.000000000000000 255 0 0
0.016905543561621 -0.004882935535136 0.000000000000000 255 0 0
0.018123230808441 -0.004882935535136 0.000000000000000 255 0 0
0.021201911124923 -0.004882935535136 0.000000000000000 255 0 0
0.018229305913143 -0.004882935535136 0.000000000000000 255 0 0
0.019848343214980 -0.004882935535136 0.000000000000000 255 0 0
0.018877124450075 -0.004882935535136 0.000000000000000 255 0 0
0.024673644192939 -0.004882935535136 0.000000000000000 255 0 0
-0.023829088516833 -0.005207156155716 0.000000000000000 255 0 0
-0.022255192400995 -0.005207156155716 0.000000000000000 255 0 0
-0.023761844122250 -0.005207156155716 0.000000000000000 255 0 0
-0.016364196844144 -0.005207156155716 0.000000000000000 255 0 0
-0.020394624548448 -0.005207156155716 0.000000000000000 255 0 0
-0.018789451364194 -0.005207156155716 0.000000000000000 255 0 0
-0.018161374543562 -0.005207156155716 0.000000000000000 255 0 0
-0.019686546423991 -0.005207156155716 0.000000000000000 255 0 0
-0.013949353572498 -0.005207156155716 0.000000000000000 255 0 0
-0.010345537502574 -0.005207156155716 0.000000000000000 255 0 0
-0.012092721615629 -0.005207156155716 0.000000000000000 255 0 0
-0.011246647037394 -0.005207156155716 0.000000000000000 255 0 0
-0.006655120624445 -0.005207156155716 0.000000000000000 255 0 0
-0.010396590776136 -0.005207156155716 0.000000000000000 255 0 0
-0.000839560006506 -0.005207156155716 0.000000000000000 255 0 0
0.001071141785785 -0.005207156155716 0.000000000000000 255 0 0
0.000275525906442 -0.005207156155716 0.000000000000000 255 0 0
0.001052307426236 -0.005207156155716 0.000000000000000 255 0 0
-0.001647319089596 -0.005207156155716 0.000000000000000 255 0 0
-0.001822387521197 -0.005207156155716 0.000000000000000 255 0 0
0.001136756126308 -0.005207156155716 0.000000000000000 255 0 0
0.004725275113812 -0.005207156155716 0.000000000000000 255 0 0
0.001792821782190 -0.005207156155716 0.000000000000000 255 0 0
0.010347474331120 -0.005207156155716 0.000000000000000 255 0 0
0.008596937188428 -0.005207156155716 0.000000000000000 255 0 0
0.009687217832221 -0.005207156155716 0.000000000000000 255 0 0
0.010270697539576 -0.005207156155716 0.000000000000000 255 0 0
0.012497798956660 -0.005207156155716 0.000000000000000 255 0 0
0.016905543561621 -0.005207156155716 0.000000000000000 255 0 0
0.018123230808441 -0.005207156155716 0.000000000000000 255 0 0
0.021201911124923 -0.005207156155716 0.000000000000000 255 0 0
0.018229305913143 -0.005207156155716 0.000000000000000 255 0 0
0.019848343214980 -0.005207156155716 0.000000000000000 255 0 0
0.018877124450075 -0.005207156155716 0.000000000000000 255 0 0
0.024673644192939 -0.005207156155716 0.000000000000000 255 0 0
-0.023829088516833 -0.009474045250517 0.000000000000000 255 0 0
-0.022255192400995 -0.009474045250517 0.000000000000000 255 0 0
-0.023761844122250 -0.009474045250517 0.000000000000000 255 0 0
-0.016364196844144 -0.009474045250517 0.000000000000000 255 0 0
-0.020394624548448 -0.009474045250517 0.000000000000000 255 0 0
-0.018789451364194 -0.009474045250517 0.000000000000000 255 0 0
-0.018161374543562 -0.009474045250517 0.000000000000000 255 0 0
-0.019686546423991 -0.009474045250517 0.000000000000000 255 0 0
-0.013949353572498 -0.009474045250517 0.000000000000000 255 0 0
-0.010345537502574 -0.009474045250517 0.000000000000000 255 0 0
-0.012092721615629 -0.009474045250517 0.000000000000000 255 0 0
-0.011246647037394 -0.009474045250517 0.000000000000000 255 0 0
-0.006655120624445 -0.009474045250517 0.000000000000000 255 0 0
-0.010396590776136 -0.009474045250517 0.000000000000000 255 0 0
-0.000839560006506 -0.009474045250517 0.000000000000000 255 0 0
0.001071141785785 -0.009474045250517 0.000000000000000 255 0 0
0.000275525906442 -0.009474045250517 0.000000000000000 255 0 0
0.001052307426236 -0.009474045250517 0.000000000000000 255 0 0
-0.001647319089596 -0.009474045250517 0.000000000000000 255 0 0
-0.001822387521197 -0.009474045250517 0.000000000000000 255 0 0
0.001136756126308 -0.009474045250517 0.000000000000000 255 0 0
0.004725275113812 -0.009474045250517 0.000000000000000 255 0 0
0.001792821782190 -0.009474045250517 0.000000000000000 255 0 0
0.010347474331120 -0.009474045250517 0.000000000000000 255 0 0
0.008596937188428 -0.009474045250517 0.000000000000000 255 0 0
0.009687217832221 -0.009474045250517 0.000000000000000 255 0 0
0.010270697539576 -0.009474045250517 0.000000000000000 255 0 0
0.012497798956660 -0.009474045250517 0.000000000000000 255 0 0
0.016905543561621 -0.009474045250517 0.000000000000000 255 0 0
0.018123230808441 -0.009474045250517 0.000000000000000 255 0 0
0.021201911124923 -0.009474045250517 0.000000000000000 255 0 0
0.018229305913143 -0.009474045250517 0.000000000000000 255 0 0
0.019848343214980 -0.009474045250517 0.000000000000000 255 0 0
0.018877124450075 -0.009474045250517 0.000000000000000 255 0 0
0.024673644192939 -0.009474045250517 0.000000000000000 255 0 0
-0.023829088516833 -0.008679242553275 0.000000000000000 255 0 0
-0.022255192400995 -0.008679242553275 0.000000000000000 255 0 0
-0.023761844122250 -0.008679242553275 0.000000000000000 255 0 0
-0.016364196844144 -0.008679242553275 0.000000000000000 255 0 0
-0.020394624548448 -0.008679242553275 0.000000000000000 255 0 0
-0.018789451364194 -0.008679242553275 0.000000000000000 255 0 0
-0.018161374543562 -0.008679242553275 0.000000000000000 255 0 0
-0.019686546423991 -0.008679242553275 0.000000000000000 255 0 0
-0.013949353572498 -0.008679242553275 0.000000000000000 255 0 0
-0.010345537502574 -0.008679242553275 0.000000000000000 255 0 0
-0.012092721615629 -0.008679242553275 0.000000000000000 255 0 0
-0.011246647037394 -0.008679242553275 0.000000000000000 255 0 0
-0.006655120624445 -0.008679242553275 0.000000000000000 255 0 0
-0.010396590776136 -0.008679242553275 0.000000000000000 255 0 0
-0.000839560006506 -0.008679242553275 0.000000000000000 255 0 0
0.001071141785785 -0.008679242553275 0.000000000000000 255 0 0
0.000275525906442 -0.008679242553275 0.000000000000000 255 0 0
0.001052307426236 -0.008679242553275 0.000000000000000 255 0 0
-0.001647319089596 -0.008679242553275 0.000000000000000 255 0 0
-0.001822387521197 -0.008679242553275 0.000000000000000 255 0 0
0.001136756126308 -0.008679242553275 0.000000000000000 255 0 0
0.004725275113812 -0.008679242553275 0.000000000000000 255 0 0
0.001792821782190 -0.008679242553275 0.000000000000000 255 0 0
0.010347474331120 -0.008679242553275 0.000000000000000 255 0 0
0.008596937188428 -0.008679242553275 0.000000000000000 255 0 0
0.009687217832221 -0.008679242553275 0.000000000000000 255 0 0
0.010270697539576 -0.008679242553275 0.000000000000000 255 0 0
0.012497798956660 -0.008679242553275 0.000000000000000 255 0 0
0.016905543561621 -0.008679242553275 0.000000000000000 255 0 0
0.018123230808441 -0.008679242553275 0.000000000000000 255 0 0
0.021201911124923 -0.008679242553275 0.000000000000000 255 0 0
0.018229305913143 -0.008679242553275 0.000000000000000 255 0 0
0.019848343214980 -0.008679242553275 0.000000000000000 255 0 0
0.018877124450075 -0.008679242553275 0.000000000000000 255 0 0
0.024673644192939 -0.008679242553275 0.000000000000000 255 0 0
-0.023829088516833 0.002913031625666 0.000000000000000 255 0 0
-0.022255192400995 0.002913031625666 0.000000000000000 255 0 0
-0.023761844122250 0.002913031625666 0.000000000000000 255 0 0
-0.016364196844144 0.002913031625666 0.000000000000000 255 0 0
-0.020394624548448 0.002913031625666 0.000000000000000 255 0 0
-0.018789451364194 0.002913031625666 0.000000000000000 255 0 0
-0.018161374543562 0.002913031625666 0.000000000000000 255 0 0
-0.019686546423991 0.002913031625666 0.000000000000000 255 0 0
-0.013949353572498 0.002913031625666 0.000000000000000 255 0 0
-0.010345537502574 0.002913031625666 0.000000000000000 255 0 0
-0.012092721615629 0.002913031625666 0.000000000000000 255 0 0
-0.011246647037394 0.002913031625666 0.000000000000000 255 0 0
-0.006655120624445 0.002913031625666 0.000000000000000 255 0 0
-0.010396590776136 0.002913031625666 0.000000000000000 255 0 0
-0.000839560006506 0.002913031625666 0.000000000000000 255 0 0
0.001071141785785 0.002913031625666 0.000000000000000 255 0 0
0.000275525906442 0.002913031625666 0.000000000000000 255 0 0
0.001052307426236 0.002913031625666 0.000000000000000 255 0 0
-0.001647319089596 0.002913031625666 0.000000000000000 255 0 0
-0.001822387521197 0.002913031625666 0.000000000000000 255 0 0
0.001136756126308 0.002913031625666 0.000000000000000 255 0 0
0.004725275113812 0.002913031625666 0.000000000000000 255 0 0
0.001792821782190 0.002913031625666 0.000000000000000 255 0 0
0.010347474331120 0.002913031625666 0.000000000000000 255 0 0
0.008596937188428 0.002913031625666 0.000000000000000 255 0 0
0.009687217832221 0.002913031625666 0.000000000000000 255 0 0
0.010270697539576 0.002913031625666 0.000000000000000 255 0 0
0.012497798956660 0.002913031625666 0.000000000000000 255 0 0
0.016905543561621 0.002913031625666 0.000000000000000 255 0 0
0.018123230808441 0.002913031625666 0.000000000000000 255 0 0
0.021201911124923 0.002913031625666 0.000000000000000 255 0 0
0.018229305913143 0.002913031625666 0.000000000000000 255 0 0
0.019848343214980 0.002913031625666 0.000000000000000 255 0 0
0.018877124450075 0.002913031625666 0.000000000000000 255 0 0
0.024673644192939 0.002913031625666 0.000000000000000 255 0 0
-0.023829088516833 -0.007532578366307 0.000000000000000 255 0 0
-0.022255192400995 -0.007532578366307 0.000000000000000 255 0 0
-0.023761844122250 -0.007532578366307 0.000000000000000 255 0 0
-0.016364196844144 -0.007532578366307 0.000000000000000 255 0 0
-0.020394624548448 -0.007532578366307 0.000000000000000 255 0 0
-0.018789451364194 -0.007532578366307 0.000000000000000 255 0 0
-0.018161374543562 -0.007532578366307 0.000000000000000 255 0 0
-0.019686546423991 -0.007532578366307 0.000000000000000 255 0 0
-0.013949353572498 -0.007532578366307 0.000000000000000 255 0 0
-0.010345537502574 -0.007532578366307 0.000000000000000 255 0 0
-0.012092721615629 -0.007532578366307 0.000000000000000 255 0 0
-0.011246647037394 -0.007532578366307 0.000000000000000 255 0 0
-0.006655120624445 -0.007532578366307 0.000000000000000 255 0 0
-0.010396590776136 -0.007532578366307 0.000000000000000 255 0 0
-0.000839560006506 -0.007532578366307 0.000000000000000 255 0 0
0.001071141785785 -0.007532578366307 0.000000000000000 255 0 0
0.000275525906442 -0.007532578366307 0.000000000000000 255 0 0
0.001052307426236 -0.007532578366307 0.000000000000000 255 0 0
-0.001647319089596 -0.007532578366307 0.000000000000000 255 0 0
-0.001822387521197 -0.007532578366307 0.000000000000000 255 0 0
0.001136756126308 -0.007532578366307 0.000000000000000 255 0 0
0.004725275113812 -0.007532578366307 0.000000000000000 255 0 0
0.001792821782190 -0.007532578366307 0.000000000000000 255 0 0
0.010347474331120 -0.007532578366307 0.000000000000000 255 0 0
0.008596937188428 -0.007532578366307 0.000000000000000 255 0 0
0.009687217832221 -0.007532578366307 0.000000000000000 255 0 0
0.010270697539576 -0.007532578366307 0.000000000000000 255 0 0
0.012497798956660 -0.007532578366307 0.000000000000000 255 0 0
0.016905543561621 -0.007532578366307 0.000000000000000 255 0 0
0.018123230808441 -0.007532578366307 0.000000000000000 255 0 0
0.021201911124923 -0.007532578366307 0.000000000000000 255 0 0
0.018229305913143 -0.007532578366307 0.000000000000000 255 0 0
0.019848343214980 -0.007532578366307 0.000000000000000 255 0 0
0.018877124450075 -0.007532578366307 0.000000000000000 255 0 0
0.024673644192939 -0.007532578366307 0.000000000000000 255 0 0
-0.023829088516833 -0.002475243367140 0.000000000000000 255 0 0
-0.022255192400995 -0.002475243367140 0.000000000000000 255 0 0
-0.023761844122250 -0.002475243367140 0.000000000000000 255 0 0
-0.016364196844144 -0.002475243367140 0.000000000000000 255 0 0
-0.020394624548448 -0.002475243367140 0.000000000000000 255 0 0
-0.018789451364194 -0.002475243367140 0.000000000000000 255 0 0
-0.018161374543562 -0.002475243367140 0.000000000000000 255 0 0
-0.019686546423991 -0.002475243367140 0.000000000000000 255 0 0
-0.013949353572498 -0.002475243367140 0.000000000000000 255 0 0
-0.010345537502574 -0.002475243367140 0.000000000000000 255 0 0
-0.012092721615629 -0.002475243367140 0.000000000000000 255 0 0
-0.011246647037394 -0.002475243367140 0.000000000000000 255 0 0
-0.006655120624445 -0.002475243367140 0.000000000000000 255 0 0
-0.010396590776136 -0.002475243367140 0.000000000000000 255 0 0
-0.000839560006506 -0.002475243367140 0.000000000000000 255 0 0
0.001071141785785 -0.002475243367140 0.000000000000000 255 0 0
0.000275525906442 -0.002475243367140 0.000000000000000 255 0 0
0.001052307426236 -0.002475243367140 0.000000000000000 255 0 0
-0.001647319089596 -0.002475243367140 0.000000000000000 255 0 0
-0.001822387521197 -0.002475243367140 0.000000000000000 255 0 0
0.001136756126308 -0.002475243367140 0.000000000000000 255 0 0
0.004725275113812 -0.002475243367140 0.000000000000000 255 0 0
0.001792821782190 -0.002475243367140 0.000000000000000 255 0 0
0.010347474331120 -0.002475243367140 0.000000000000000 255 0 0
0.008596937188428 -0.002475243367140 0.000000000000000 255 0 0
0.009687217832221 -0.002475243367140 0.000000000000000 255 0 0
0.010270697539576 -0.002475243367140 0.000000000000000 255 0 0
0.012497798956660 -0.002475243367140 0.000000000000000 255 0 0
0.016905543561621 -0.002475243367140 0.000000000000000 255 0 0
0.018123230808441 -0.002475243367140 0.000000000000000 255 0 0
0.021201911124923 -0.002475243367140 0.000000000000000 255 0 0
0.018229305913143 -0.002475243367140 0.000000000000000 255 0 0
0.019848343214980 -0.002475243367140 0.000000000000000 255 0 0
0.018877124450075 -0.002475243367140 0.000000000000000 255 0 0
0.024673644192939 -0.002475243367140 0.000000000000000 255 0 0
-0.023829088516833 0.006745572199926 0.000000000000000 255 0 0
-0.022255192400995 0.006745572199926 0.000000000000000 255 0 0
-0.023761844122250 0.006745572199926 0.000000000000000 255 0 0
-0.016364196844144 0.006745572199926 0.000000000000000 255 0 0
-0.020394624548448 0.006745572199926 0.000000000000000 255 0 0
-0.018789451364194 0.006745572199926 0.000000000000000 255 0 0
-0.018161374543562 0.006745572199926 0.000000000000000 255 0 0
-0.019686546423991 0.006745572199926 0.000000000000000 255 0 0
-0.013949353572498 0.006745572199926 0.000000000000000 255 0 0
-0.010345537502574 0.006745572199926 0.000000000000000 255 0 0
-0.012092721615629 0.006745572199926 0.000000000000000 255 0 0
-0.011246647037394 0.006745572199926 0.000000000000000 255 0 0
-0.006655120624445 0.006745572199926 0.000000000000000 255 0 0
-0.010396590776136 0.006745572199926 0.000000000000000 255 0 0
-0.000839560006506 0.006745572199926 0.000000000000000 255 0 0
0.001071141785785 0.006745572199926 0.000000000000000 255 0 0
0.000275525906442 0.006745572199926 0.000000000000000 255 0 0
0.001052307426236 0.006745572199926 0.000000000000000 255 0 0
-0.001647319089596 0.006745572199926 0.000000000000000 255 0 0
-0.001822387521197 0.006745572199926 0.000000000000000 255 0 0
0.001136756126308 0.006745572199926 0.000000000000000 255 0 0
0.004725275113812 0.006745572199926 0.000000000000000 255 0 0
0.001792821782190 0.006745572199926 0.000000000000000 255 0 0
0.010347474331120 0.006745572199926 0.000000000000000 255 0 0
0.008596937188428 0.006745572199926 0.000000000000000 255 0 0
0.009687217832221 0.006745572199926 0.000000000000000 255 0 0
0.010270697539576 0.006745572199926 0.000000000000000 255 0 0
0.012497798956660 0.006745572199926 0.000000000000000 255 0 0
0.016905543561621 0.006745572199926 0.000000000000000 255 0 0
0.018123230808441 0.006745572199926 0.000000000000000 255 0 0
0.021201911124923 0.006745572199926 0.000000000000000 255 0 0
0.018229305913143 0.006745572199926 0.000000000000000 255 0 0
0.019848343214980 0.006745572199926 0.000000000000000 255 0 0
0.018877124450075 0.006745572199926 0.000000000000000 255 0 0
0.024673644192939 0.006745572199926 0.000000000000000 255 0 0
-0.023829088516833 -0.004750263632268 0.000000000000000 255 0 0
-0.022255192400995 -0.004750263632268 0.000000000000000 255 0 0
-0.023761844122250 -0.004750263632268 0.000000000000000 255 0 0
-0.016364196844144 -0.004750263632268 0.000000000000000 255 0 0
-0.020394624548448 -0.004750263632268 0.000000000000000 255 0 0
-0.018789451364194 -0.004750263632268 0.000000000000000 255 0 0
-0.018161374543562 -0.004750263632268 0.000000000000000 255 0 0
-0.019686546423991 -0.004750263632268 0.000000000000000 255 0 0
-0.013949353572498 -0.004750263632268 0.000000000000000 255 0 0
-0.010345537502574 -0.004750263632268 0.000000000000000 255 0 0
-0.012092721615629 -0.004750263632268 0.000000000000000 255 0 0
-0.011246647037394 -0.004750263632268 0.000000000000000 255 0 0
-0.006655120624445 -0.004750263632268 0.000000000000000 255 0 0
-0.010396590776136 -0.004750263632268 0.000000000000000 255 0 0
-0.000839560006506 -0.004750263632268 0.000000000000000 255 0 0
0.001071141785785 -0.004750263632268 0.000000000000000 255 0 0
0.000275525906442 -0.004750263632268 0.000000000000000 255 0 0
0.001052307426236 -0.004750263632268 0.000000000000000 255 0 0
-0.001647319089596 -0.004750263632268 0.000000000000000 255 0 0
-0.001822387521197 -0.004750263632268 0.000000000000000 255 0 0
0.001136756126308 -0.004750263632268 0.000000000000000 255 0 0
0.004725275113812 -0.004750263632268 0.000000000000000 255 0 0
0.001792821782190 -0.004750263632268 0.000000000000000 255 0 0
0.010347474331120 -0.004750263632268 0.000000000000000 255 0 0
0.008596937188428 -0.004750263632268 0.000000000000000 255 0 0
0.009687217832221 -0.004750263632268 0.000000000000000 255 0 0
0.010270697539576 -0.004750263632268 0.000000000000000 255 0 0
0.012497798956660 -0.004750263632268 0.000000000000000 255 0 0
0.016905543561621 -0.004750263632268 0.000000000000000 255 0 0
0.018123230808441 -0.004750263632268 0.000000000000000 255 0 0
0.021201911124923 -0.004750263632268 0.000000000000000 255 0 0
0.018229305913143 -0.004750263632268 0.000000000000000 255 0 0
0.019848343214980 -0.004750263632268 0.000000000000000 255 0 0
0.018877124450075 -0.004750263632268 0.000000000000000 255 0 0
0.024673644192939 -0.004750263632268 0.000000000000000 255 0 0
-0.023829088516833 0.000928698537351 0.000000000000000 255 0 0
-0.022255192400995 0.000928698537351 0.000000000000000 255 0 0
-0.023761844122250 0.000928698537351 0.000000000000000 255 0 0
-0.016364196844144 0.000928698537351 0.000000000000000 255 0 0
-0.020394624548448 0.000928698537351 0.000000000000000 255 0 0
-0.018789451364194 0.000928698537351 0.000000000000000 255 0 0
-0.018161374543562 0.000928698537351 0.000000000000000 255 0 0
-0.019686546423991 0.000928698537351 0.000000000000000 255 0 0
-0.013949353572498 0.000928698537351 0.000000000000000 255 0 0
-0.010345537502574 0.000928698537351 0.000000000000000 255 0 0
-0.012092721615629 0.000928698537351 0.000000000000000 255 0 0
-0.011246647037394 0.000928698537351 0.000000000000000 255 0 0
-0.006655120624445 0.000928698537351 0.000000000000000 255 0 0
-0.010396590776136 0.000928698537351 0.000000000000000 255 0 0
-0.000839560006506 0.000928698537351 0.000000000000000 255 0 0
0.001071141785785 0.000928698537351 0.000000000000000 255 0 0
0.000275525906442 0.000928698537351 0.000000000000000 255 0 0
0.001052307426236 0.000928698537351 0.000000000000000 255 0 0
-0.001647319089596 0.000928698537351 0.000000000000000 255 0 0
-0.001822387521197 0.000928698537351 0.000000000000000 255 0 0
0.001136756126308 0.000928698537351 0.000000000000000 255 0 0
0.004725275113812 0.000928698537351 0.000000000000000 255 0 0
0.001792821782190 0.000928698537351 0.000000000000000 255 0 0
0.010347474331120 0.000928698537351 0.000000000000000 255 0 0
0.008596937188428 0.000928698537351 0.000000000000000 255 0 0
0.009687217832221 0.000928698537351 0.000000000000000 255 0 0
0.010270697539576 0.000928698537351 0.000000000000000 255 0 0
0.012497798956660 0.000928698537351 0.000000000000000 255 0 0
0.016905543561621 0.000928698537351 0.000000000000000 255 0 0
0.018123230808441 0.000928698537351 0.000000000000000 255 0 0
0.021201911124923 0.000928698537351 0.000000000000000 255 0 0
0.018229305913143 0.000928698537351 0.000000000000000 255 0 0
0.019848343214980 0.000928698537351 0.000000000000000 255 0 0
0.018877124450075 0.000928698537351 0.000000000000000 255 0 0
0.024673644192939 0.000928698537351 0.000000000000000 255 0 0
-0.023829088516833 -0.003543607139500 0.000000000000000 255 0 0
-0.022255192400995 -0.003543607139500 0.000000000000000 255 0 0
-0.023761844122250 -0.003543607139500 0.000000000000000 255 0 0
-0.016364196844144 -0.003543607139500 0.000000000000000 255 0 0
-0.020394624548448 -0.003543607139500 0.000000000000000 255 0 0
-0.018789451364194 -0.003543607139500 0.000000000000000 255 0 0
-0.018161374543562 -0.003543607139500 0.000000000000000 255 0 0
-0.019686546423991 -0.003543607139500 0.000000000000000 255 0 0
-0.013949353572498 -0.003543607139500 0.000000000000000 255 0 0
-0.010345537502574 -0.003543607139500 0.000000000000000 255 0 0
-0.012092721615629 -0.003543607139500 0.000000000000000 255 0 0
-0.011246647037394 -0.003543607139500 0.000000000000000 255 0 0
-0.006655120624445 -0.003543607139500 0.000000000000000 255 0 0
-0.010396590776136 -0.003543607139500 0.000000000000000 255 0 0
-0.000839560006506 -0.003543607139500 0.000000000000000 255 0 0
0.001071141785785 -0.003543607139500 0.000000000000000 255 0 0
0.000275525906442 -0.003543607139500 0.000000000000000 255 0 0
0.001052307426236 -0.003543607139500 0.000000000000000 255 0 0
-0.001647319089596 -0.003543607139500 0.000000000000000 255 0 0
-0.001822387521197 -0.003543607139500 0.000000000000000 255 0 0
0.001136756126308 -0.003543607139500 0.000000000000000 255 0 0
0.004725275113812 -0.003543607139500 0.000000000000000 255 0 0
0.001792821782190 -0.003543607139500 0.000000000000000 255 0 0
0.010347474331120 -0.003543607139500 0.000000000000000 255 0 0
0.008596937188428 -0.003543607139500 0.000000000000000 255 0 0
0.009687217832221 -0.003543607139500 0.000000000000000 255 0 0
0.010270697539576 -0.003543607139500 0.000000000000000 255 0 0
0.012497798956660 -0.003543607139500 0.000000000000000 255 0 0
0.016905543561621 -0.003543607139500 0.000000000000000 255 0 0
0.018123230808441 -0.003543607139500 0.000000000000000 255 0 0
0.021201911124923 -0.003543607139500 0.000000000000000 255 0 0
0.018229305913143 -0.003543607139500 0.000000000000000 255 0 0
0.019848343214980 -0.003543607139500 0.000000000000000 255 0 0
0.018877124450075 -0.003543607139500 0.000000000000000 255 0 0
0.024673644192939 -0.003543607139500 0.000000000000000 255 0 0
-0.023829088516833 0.014290038239158 0.000000000000000 255 0 0
-0.022255192400995 0.014290038239158 0.000000000000000 255 0 0
-0.023761844122250 0.014290038239158 0.000000000000000 255 0 0
-0.016364196844144 0.014290038239158 0.000000000000000 255 0 0
-0.020394624548448 0.014290038239158 0.000000000000000 255 0 0
-0.018789451364194 0.014290038239158 0.000000000000000 255 0 0
-0.018161374543562 0.014290038239158 0.000000000000000 255 0 0
-0.019686546423991 0.014290038239158 0.000000000000000 255 0 0
-0.013949353572498 0.014290038239158 0.000000000000000 255 0 0
-0.010345537502574 0.014290038239158 0.000000000000000 255 0 0
-0.012092721615629 0.014290038239158 0.000000000000000 255 0 0
-0.011246647037394 0.014290038239158 0.000000000000000 255 0 0
-0.006655120624445 0.014290038239158 0.000000000000000 255 0 0
-0.010396590776136 0.014290038239158 0.000000000000000 255 0 0
-0.000839560006506 0.014290038239158 0.000000000000000 255 0 0
0.001071141785785 0.014290038239158 0.000000000000000 255 0 0
0.000275525906442 0.014290038239158 0.000000000000000 255 0 0
0.001052307426236 0.014290038239158 0.000000000000000 255 0 0
-0.001647319089596 0.014290038239158 0.000000000000000 255 0 0
-0.001822387521197 0.014290038239158 0.000000000000000 255 0 0
0.001136756126308 0.014290038239158 0.000000000000000 255 0 0
0.004725275113812 0.014290038239158 0.000000000000000 255 0 0
0.001792821782190 0.014290038239158 0.000000000000000 255 0 0
0.010347474331120 0.014290038239158 0.000000000000000 255 0 0
0.008596937188428 0.014290038239158 0.000000000000000 255 0 0
0.009687217832221 0.014290038239158 0.000000000000000 255 0 0
0.010270697539576 0.014290038239158 0.000000000000000 255 0 0
0.012497798956660 0.014290038239158 0.000000000000000 255 0 0
0.016905543561621 0.014290038239158 0.000000000000000 255 0 0
0.018123230808441 0.014290038239158 0.000000000000000 255 0 0
0.021201911124923 0.014290038239158 0.000000000000000 255 0 0
0.018229305913143 0.014290038239158 0.000000000000000 255 0 0
0.019848343214980 0.014290038239158 0.000000000000000 255 0 0
0.018877124450075 0.014290038239158 0.000000000000000 255 0 0
0.024673644192939 0.014290038239158 0.000000000000000 255 0 0
-0.023829088516833 0.000445655539361 0.000000000000000 255 0 0
-0.022255192400995 0.000445655539361 0.000000000000000 255 0 0
-0.023761844122250 0.000445655539361 0.000000000000000 255 0 0
-0.016364196844144 0.000445655539361 0.000000000000000 255 0 0
-0.020394624548448 0.000445655539361 0.000000000000000 255 0 0
-0.018789451364194 0.000445655539361 0.000000000000000 255 0 0
-0.018161374543562 0.000445655539361 0.000000000000000 255 0 0
-0.019686546423991 0.000445655539361 0.000000000000000 255 0 0
-0.013949353572498 0.000445655539361 0.000000000000000 255 0 0
-0.010345537502574 0.000445655539361 0.000000000000000 255 0 0
-0.012092721615629 0.000445655539361 0.000000000000000 255 0 0
-0.011246647037394 0.000445655539361 0.000000000000000 255 0 0
-0.006655120624445 0.000445655539361 0.000000000000000 255 0 0
-0.010396590776136 0.000445655539361 0.000000000000000 255 0 0
-0.000839560006506 0.000445655539361 0.000000000000000 255 0 0
0.001071141785785 0.000445655539361 0.000000000000000 255 0 0
0.000275525906442 0.000445655539361 0.000000000000000 255 0 0
0.001052307426236 0.000445655539361 0.000000000000000 255 0 0
-0.001647319089596 0.000445655539361 0.000000000000000 255 0 0
-0.001822387521197 0.000445655539361 0.000000000000000 255 0 0
0.001136756126308 0.000445655539361 0.000000000000000 255 0 0
0.004725275113812 0.000445655539361 0.000000000000000 255 0 0
0.001792821782190 0.000445655539361 0.000000000000000 255 0 0
0.010347474331120 0.000445655539361 0.000000000000000 255 0 0
0.008596937188428 0.000445655539361 0.000000000000000 255 0 0
0.009687217832221 0.000445655539361 0.000000000000000 255 0 0
0.010270697539576 0.000445655539361 0.000000000000000 255 0 0
0.012497798956660 0.000445655539361 0.000000000000000 255 0 0
0.016905543561621 0.000445655539361 0.000000000000000 255 0 0
0.018123230808441 0.000445655539361 0.000000000000000 255 0 0
0.021201911124923 0.000445655539361 0.000000000000000 255 0 0
0.018229305913143 0.000445655539361 0.000000000000000 255 0 0
0.019848343214980 0.000445655539361 0.000000000000000 255 0 0
0.018877124450075 0.000445655539361 0.000000000000000 255 0 0
0.024673644192939 0.000445655539361 0.000000000000000 255 0 0
-0.023829088516833 0.010719153236833 0.000000000000000 255 0 0
-0.022255192400995 0.010719153236833 0.000000000000000 255 0 0
-0.023761844122250 0.010719153236833 0.000000000000000 255 0 0
-0.016364196844144 0.010719153236833 0.000000000000000 255 0 0
-0.020394624548448 0.010719153236833 0.000000000000000 255 0 0
-0.018789451364194 0.010719153236833 0.000000000000000 255 0 0
-0.018161374543562 0.010719153236833 0.000000000000000 255 0 0
-0.019686546423991 0.010719153236833 0.000000000000000 255 0 0
-0.013949353572498 0.010719153236833 0.000000000000000 255 0 0
-0.010345537502574 0.010719153236833 0.000000000000000 255 0 0
-0.012092721615629 0.010719153236833 0.000000000000000 255 0 0
-0.011246647037394 0.010719153236833 0.000000000000000 255 0 0
-0.006655120624445 0.010719153236833 0.000000000000000 255 0 0
-0.010396590776136 0.010719153236833 0.000000000000000 255 0 0
-0.000839560006506 0.010719153236833 0.000000000000000 255 0 0
0.001071141785785 0.010719153236833 0.000000000000000 255 0 0
0.000275525906442 0.010719153236833 0.000000000000000 255 0 0
0.001052307426236 0.010719153236833 0.000000000000000 255 0 0
-0.001647319089596 0.010719153236833 0.000000000000000 255 0 0
-0.001822387521197 0.010719153236833 0.000000000000000 255 0 0
0.001136756126308 0.010719153236833 0.000000000000000 255 0 0
0.004725275113812 0.010719153236833 0.000000000000000 255 0 0
0.001792821782190 0.010719153236833 0.000000000000000 255 0 0
0.010347474331120 0.010719153236833 0.000000000000000 255 0 0
0.008596937188428 0.010719153236833 0.000000000000000 255 0 0
0.009687217832221 0.010719153236833 0.000000000000000 255 0 0
0.010270697539576 0.010719153236833 0.000000000000000 255 0 0
0.012497798956660 0.010719153236833 0.000000000000000 255 0 0
0.016905543561621 0.010719153236833 0.000000000000000 255 0 0
0.018123230808441 0.010719153236833 0.000000000000000 255 0 0
0.021201911124923 0.010719153236833 0.000000000000000 255 0 0
0.018229305913143 0.010719153236833 0.000000000000000 255 0 0
0.019848343214980 0.010719153236833 0.000000000000000 255 0 0
0.018877124450075 0.010719153236833 0.000000000000000 255 0 0
0.024673644192939 0.010719153236833 0.000000000000000 255 0 0
-0.023829088516833 0.012476551465244 0.000000000000000 255 0 0
-0.022255192400995 0.012476551465244 0.000000000000000 255 0 0
-0.023761844122250 0.012476551465244 0.000000000000000 255 0 0
-0.016364196844144 0.012476551465244 0.000000000000000 255 0 0
-0.020394624548448 0.012476551465244 0.000000000000000 255 0 0
-0.018789451364194 0.012476551465244 0.000000000000000 255 0 0
-0.018161374543562 0.012476551465244 0.000000000000000 255 0 0
-0.019686546423991 0.012476551465244 0.000000000000000 255 0 0
-0.013949353572498 0.012476551465244 0.000000000000000 255 0 0
-0.010345537502574 0.012476551465244 0.000000000000000 255 0 0
-0.012092721615629 0.012476551465244 0.000000000000000 255 0 0
-0.011246647037394 0.012476551465244 0.000000000000000 255 0 0
-0.006655120624445 0.012476551465244 0.000000000000000 255 0 0
-0.010396590776136 0.012476551465244 0.000000000000000 255 0 0
-0.000839560006506 0.012476551465244 0.000000000000000 255 0 0
0.001071141785785 0.012476551465244 0.000000000000000 255 0 0
0.000275525906442 0.012476551465244 0.000000000000000 255 0 0
0.001052307426236 0.012476551465244 0.000000000000000 255 0 0
-0.001647319089596 0.012476551465244 0.000000000000000 255 0 0
-0.001822387521197 0.012476551465244 0.000000000000000 255 0 0
0.001136756126308 0.012476551465244 0.000000000000000 255 0 0
0.004725275113812 0.012476551465244 0.000000000000000 255 0 0
0.001792821782190 0.012476551465244 0.000000000000000 255 0 0
0.010347474331120 0.012476551465244 0.000000000000000 255 0 0
0.008596937188428 0.012476551465244 0.000000000000000 255 0 0
0.009687217832221 0.012476551465244 0.000000000000000 255 0 0
0.010270697539576 0.012476551465244 0.000000000000000 255 0 0
0.012497798956660 0.012476551465244 0.000000000000000 255 0 0
0.016905543561621 0.012476551465244 0.000000000000000 255 0 0
0.018123230808441 0.012476551465244 0.000000000000000 255 0 0
0.021201911124923 0.012476551465244 0.000000000000000 255 0 0
0.018229305913143 0.012476551465244 0.000000000000000 255 0 0
0.019848343214980 0.012476551465244 0.000000000000000 255 0 0
0.018877124450075 0.012476551465244 0.000000000000000 255 0 0
0.024673644192939 0.012476551465244 0.000000000000000 255 0 0
-0.023829088516833 0.012846227493382 0.000000000000000 255 0 0
-0.022255192400995 0.012846227493382 0.000000000000000 255 0 0
-0.023761844122250 0.012846227493382 0.000000000000000 255 0 0
-0.016364196844144 0.012846227493382 0.000000000000000 255 0 0
-0.020394624548448 0.012846227493382 0.000000000000000 255 0 0
-0.018789451364194 0.012846227493382 0.000000000000000 255 0 0
-0.018161374543562 0.012846227493382 0.000000000000000 255 0 0
-0.019686546423991 0.012846227493382 0.000000000000000 255 0 0
-0.013949353572498 0.012846227493382 0.000000000000000 255 0 0
-0.010345537502574 0.012846227493382 0.000000000000000 255 0 0
-0.012092721615629 0.012846227493382 0.000000000000000 255 0 0
-0.011246647037394 0.012846227493382 0.000000000000000 255 0 0
-0.006655120624445 0.012846227493382 0.000000000000000 255 0 0
-0.010396590776136 0.012846227493382 0.000000000000000 255 0 0
-0.000839560006506 0.012846227493382 0.000000000000000 255 0 0
0.001071141785785 0.012846227493382 0.000000000000000 255 0 0
0.000275525906442 0.012846227493382 0.000000000000000 255 0 0
0.001052307426236 0.012846227493382 0.000000000000000 255 0 0
-0.001647319089596 0.012846227493382 0.000000000000000 255 0 0
-0.001822387521197 0.012846227493382 0.000000000000000 255 0 0
0.001136756126308 0.012846227493382 0.000000000000000 255 0 0
0.004725275113812 0.012846227493382 0.000000000000000 255 0 0
0.001792821782190 0.012846227493382 0.000000000000000 255 0 0
0.010347474331120 0.012846227493382 0.000000000000000 255 0 0
0.008596937188428 0.012846227493382 0.000000000000000 255 0 0
0.009687217832221 0.012846227493382 0.000000000000000 255 0 0
0.010270697539576 0.012846227493382 0.000000000000000 255 0 0
0.012497798956660 0.012846227493382 0.000000000000000 255 0 0
0.016905543561621 0.012846227493382 0.000000000000000 255 0 0
0.018123230808441 0.012846227493382 0.000000000000000 255 0 0
0.021201911124923 0.012846227493382 0.000000000000000 255 0 0
0.018229305913143 0.012846227493382 0.000000000000000 255 0 0
0.019848343214980 0.012846227493382 0.000000000000000 255 0 0
0.018877124450075 0.012846227493382 0.000000000000000 255 0 0
0.024673644192939 0.012846227493382 0.000000000000000 255 0 0
